PathFileType	4	(X/Y/Z)	1H_rest_fast_left.trc
DataRate	CameraRate	NumFrames	NumMarkers	Units	OrigDataRate	OrigDataStartFrame	OrigNumFrames
250.00	250.00	12	18	mm	250.00	24163	27614
Frame#	Time	c7	r_should	l_should	clavicle	r_upa	r_elb_l	r_elb_m	r_low	r_wri_l	r_wri_m	r_met	l_upa	l_elb_l	l_elb_m	l_low	l_wri_l	l_wri_m	l_met
	X1	Y1	Z1	X2	Y2	Z2	X3	Y3	Z3	X4	Y4	Z4	X5	Y5	Z5	X6	Y6	Z6	X7	Y7	Z7	X8	Y8	Z8	X9	Y9	Z9	X10	Y10	Z10	X11	Y11	Z11	X12	Y12	Z12	X13	Y13	Z13	X14	Y14	Z14	X15	Y15	Z15	X16	Y16	Z16	X17	Y17	Z17	X18	Y18	Z18
24163	96.64800	608.61584	1417.92212	231.03932	669.74463	1367.26685	389.39886	652.41241	1369.81824	71.07368	743.61481	1284.15698	224.09123	679.27515	1159.32825	463.27264	677.44000	1069.95471	485.82571	627.97314	1033.59399	417.93542	730.31049	892.35858	481.38492	757.07648	827.01312	457.49628	689.52966	806.43457	481.38159	789.45551	747.82001	490.33682	673.75226	1188.61133	-4.84601	686.88165	1116.90686	-23.10535	678.71283	1057.34558	57.78647	779.61450	1164.64978	21.37816	807.40063	1222.93420	67.73307	851.59656	1167.71753	86.28384	884.60669	1273.75891	63.52346
24164	96.65200	608.57471	1417.92554	231.03558	669.70441	1367.27380	389.39078	652.37805	1369.82520	71.06219	743.58240	1284.16382	224.09607	679.22699	1159.31921	463.24597	677.38623	1069.93640	485.79852	627.94287	1033.59229	417.91995	730.29913	892.37177	481.40790	757.07135	827.02429	457.52151	689.51660	806.41022	481.34326	789.43420	747.81616	490.34845	673.73779	1188.61304	-4.84398	686.84576	1116.89185	-23.12819	678.62433	1057.33472	57.71882	779.60284	1164.65820	21.37139	807.37097	1222.94507	67.73352	851.56421	1167.72266	86.28897	884.58215	1273.77576	63.51912
24165	96.65600	608.53345	1417.92053	231.03471	669.66913	1367.27686	389.39230	652.34479	1369.82800	71.05579	743.55200	1284.17615	224.09029	679.17218	1159.29993	463.22522	677.33527	1069.91199	485.77100	627.90759	1033.57593	417.90372	730.28949	892.38599	481.42200	757.06934	827.04156	457.54861	689.50208	806.36224	481.30173	789.41803	747.81012	490.35846	673.71753	1188.60889	-4.83835	686.79504	1116.86389	-23.14750	678.54816	1057.29163	57.66228	779.58813	1164.66406	21.37553	807.34113	1222.95862	67.74359	851.53973	1167.73950	86.29047	884.55249	1273.79150	63.51733
24166	96.66000	608.48724	1417.90967	231.03430	669.62787	1367.28040	389.38928	652.31012	1369.82520	71.05199	743.52386	1284.19202	224.07642	679.11523	1159.28406	463.21628	677.29266	1069.89575	485.75986	627.87549	1033.55786	417.89651	730.28290	892.40710	481.43686	757.06970	827.06323	457.57028	689.48566	806.32269	481.28632	789.40027	747.81201	490.38251	673.69843	1188.60645	-4.84287	686.75006	1116.83374	-23.15139	678.48975	1057.24023	57.63105	779.56726	1164.67102	21.38485	807.31238	1222.95984	67.75461	851.52148	1167.75720	86.29535	884.52026	1273.80554	63.50927
24167	96.66400	608.43652	1417.89392	231.02576	669.58307	1367.28003	389.38077	652.26373	1369.81799	71.04718	743.49310	1284.21045	224.06512	679.07971	1159.28882	463.22202	677.26257	1069.90308	485.77005	627.83984	1033.55859	417.91321	730.27191	892.42627	481.44870	757.06384	827.08978	457.59399	689.47449	806.31281	481.31067	789.39496	747.82874	490.41537	673.67480	1188.60718	-4.85283	686.72791	1116.82043	-23.13904	678.48004	1057.21558	57.64613	779.54138	1164.67322	21.39186	807.28094	1222.95923	67.76221	851.50604	1167.78015	86.30573	884.48981	1273.81750	63.50761
24168	96.66800	608.38812	1417.88013	231.03076	669.53461	1367.28052	389.37061	652.21204	1369.80920	71.04514	743.45905	1284.21960	224.05815	679.06458	1159.31946	463.24319	677.25537	1069.92737	485.79227	627.82349	1033.57471	417.93512	730.25574	892.44110	481.46277	757.05621	827.10468	457.61279	689.47241	806.34186	481.37933	789.40308	747.86530	490.45642	673.64941	1188.59839	-4.85807	686.72662	1116.83691	-23.12141	678.50616	1057.22681	57.68837	779.50873	1164.67065	21.39595	807.24689	1222.96826	67.76569	851.49054	1167.79810	86.30291	884.45685	1273.82678	63.50829
24169	96.67200	608.33881	1417.87427	231.03152	669.49414	1367.27734	389.35861	652.16315	1369.79895	71.03989	743.42255	1284.22375	224.05318	679.06165	1159.35266	463.26065	677.26727	1069.96704	485.82239	627.82159	1033.59131	417.95523	730.24023	892.45062	481.47855	757.05029	827.10876	457.62503	689.47760	806.40924	481.46222	789.42859	747.91028	490.50034	673.62860	1188.58423	-4.85724	686.74469	1116.87585	-23.10347	678.57544	1057.25720	57.75811	779.48761	1164.66943	21.40314	807.22290	1222.98645	67.77312	851.47937	1167.81360	86.29115	884.42865	1273.83569	63.51462
24170	96.67600	608.29218	1417.87915	231.02019	669.45532	1367.28149	389.34952	652.11951	1369.79871	71.02754	743.38654	1284.23474	224.04396	679.05890	1159.38452	463.27298	677.27539	1070.00916	485.84616	627.81989	1033.60657	417.96768	730.22937	892.45416	481.48560	757.04181	827.11792	457.64218	689.48926	806.48535	481.52209	789.46161	747.95660	490.54022	673.61627	1188.57617	-4.86437	686.77087	1116.91504	-23.09988	678.64087	1057.29419	57.81017	779.47583	1164.67737	21.41268	807.20984	1222.99902	67.77741	851.46887	1167.82227	86.28130	884.40314	1273.85876	63.51747
24171	96.68000	608.24811	1417.88672	230.99161	669.41217	1367.30078	389.33319	652.07336	1369.81128	71.00740	743.35077	1284.25061	224.02850	679.02777	1159.41235	463.27234	677.25824	1070.04004	485.85361	627.80811	1033.62769	417.96487	730.21594	892.46472	481.49094	757.03253	827.13092	457.64630	689.49268	806.53601	481.53687	789.47388	747.98907	490.55334	673.60089	1188.58459	-4.87373	686.78961	1116.92957	-23.10729	678.66022	1057.33105	57.80347	779.46759	1164.69275	21.40711	807.20343	1223.01379	67.78096	851.45734	1167.82886	86.28010	884.38074	1273.89233	63.51204
24172	96.68400	608.20203	1417.89600	230.95618	669.36810	1367.32043	389.31030	652.02759	1369.82275	70.98582	743.30914	1284.26733	224.00974	678.97662	1159.42712	463.25842	677.21704	1070.05139	485.83820	627.78485	1033.63770	417.95230	730.19977	892.48071	481.49719	757.02136	827.14880	457.65811	689.48102	806.54370	481.51160	789.45325	747.99194	490.54669	673.58545	1188.59668	-4.88202	686.78241	1116.91528	-23.12488	678.62756	1057.34229	57.76426	779.45886	1164.71399	21.40006	807.19360	1223.03723	67.78068	851.44299	1167.84106	86.28072	884.36053	1273.92358	63.51070
24173	96.68800	608.15234	1417.89661	230.92685	669.32190	1367.33264	389.29022	651.98035	1369.82483	70.96870	743.26929	1284.27820	223.99312	678.91089	1159.42383	463.23938	677.16815	1070.03528	485.81088	627.74896	1033.63391	417.93661	730.18372	892.48975	481.50650	757.00714	827.15582	457.66785	689.46045	806.51343	481.46173	789.41278	747.97437	490.53809	673.56622	1188.59790	-4.89099	686.74884	1116.88281	-23.14617	678.55389	1057.32178	57.71798	779.44543	1164.72559	21.40591	807.17554	1223.06287	67.77999	851.42676	1167.86035	86.27491	884.33679	1273.94641	63.51303
24174	96.69200	608.10217	1417.88513	230.91360	669.27777	1367.33203	389.28452	651.93280	1369.82129	70.95316	743.22748	1284.27869	223.97679	678.84784	1159.40308	463.23093	677.11578	1070.00647	485.79611	627.70959	1033.61047	417.92416	730.16608	892.49426	481.52319	756.99353	827.15753	457.68365	689.43463	806.46429	481.41620	789.37830	747.95294	490.53568	673.54346	1188.58936	-4.89738	686.70905	1116.84094	-23.15345	678.47083	1057.29028	57.68641	779.42841	1164.72766	21.41883	807.15430	1223.08215	67.79208	851.41058	1167.88538	86.27858	884.30988	1273.96130	63.51727
